<?xml version="1.0" encoding="utf-8"?>
<!-- Generator: Adobe Illustrator 27.7.0, SVG Export Plug-In . SVG Version: 6.00 Build 0)  -->
<svg version="1.1" id="Layer_1" xmlns="http://www.w3.org/2000/svg" xmlns:xlink="http://www.w3.org/1999/xlink" x="0px" y="0px"
	 viewBox="0 0 442 445" style="enable-background:new 0 0 442 445;" xml:space="preserve">
<style type="text/css">
	.st0{fill:#FFFFFF;}
	.st1{fill:#73C4FC;}
	.st2{fill:#393A3A;}
	.st3{fill:#A0A0A0;}
	.st4{fill:#231815;}
	.st5{clip-path:url(#SVGID_00000043450818730669345090000012637593766774422152_);}
	.st6{fill:#707070;}
</style>
<path class="st0" d="M164,159.5c-0.4-4.4-8.2-11.5-12-14.5l-8,17.5l-20,21c-5.8,3.3-18.3,10.7-21.5,13.5c-4,3.5-3.5,7-7.5,10
	c-3.2,2.4-7.7,9.7-9.5,13l-4,29L72,272l25,9.5l9.5-5c2.8-4.8,9.4-14.2,13-13c4.5,1.5,28-1,31.5-1.5s12-11.5,13-13s5-20.5,5-24.5
	s1.5-8.5,4-12s1-7.5,0-8.5s-4.5-1-7-1.5s-2-7.5,0-16.5S164.5,165,164,159.5z"/>
<path class="st0" d="M252.5,393l-15,28l15,13l8,3l21.5-7l14-19l6-13l3-11l-2-6.5c3.7-2.2,11.4-7.3,13-10.5c2-4-3-7-5.5-7
	s-4,3.5-3.5,2c0.4-1.2,2.5-3.5,3.5-4.5v-4h-10c-7.7,4.7-25,15.4-33,21S254.2,390.2,252.5,393z"/>
<path class="st0" d="M409,94L197,63.5L173.5,218L391,252.5L409,94z"/>
<path class="st1" d="M78.4,212.8c0,0-6.6,14.1-8,27c-1.4,13,3.9,36.6-36.6,42.7c0,0,14.1-6.2,9.5-14.2c-4.6-8-26.4-13.5-7.3-32.5
	C55,216.7,61,212.2,53.3,198.7c-7.7-13.5-27.7-36.3,5.4-59.7c33.1-23.5,0-3.5,0-3.5s22.1-51,82.7-24.8c0,0,31,86.1-80,90.3
	C61.4,201,68.5,215.5,78.4,212.8L78.4,212.8z"/>
<path class="st2" d="M178.5,93l12.5,8.7l6-35.3l213.1,27.5l-20.8,157.3l-188-31.2l-2.3,16.5l101.5,16.2l-11,30l-43.3,2.3l-4.3,17.1
	l97.9,18.6l22.6-20.5l-6-38.9l47.5,7.5l15.1-9.9c0,0,19.9-150.5,20.3-153.4c0.4-2.9-11.2-24.2-11.2-24.2L186.2,47.3l-3.4,9.6
	L178.5,93L178.5,93z"/>
<path class="st2" d="M303,379.8l15.5-11.1l3.2-6.9l16.3,3.9l9,7.1c0,0,10.7,13.3-10.8,31.2c-21.5,17.9-43.1,26.1-43.1,26.1h-10.6
	c0,0,9.5-12.1,12-18.5c2.5-6.4,2.9-8.8,2.9-8.8S305.5,396.4,303,379.8L303,379.8z"/>
<path class="st3" d="M61.4,284.2l11.3-15.9l20.9,10.8l10.7,12.9l25.2,20.2c0,0,37,44.8,22.6,80.5l-10.8,18.8L27.1,295.1
	C27.1,295.1,51.5,294.1,61.4,284.2L61.4,284.2z"/>
<path class="st4" d="M152.4,134.8c-4.2,17.3-13.4,32.7-26.9,44.4c-13.6,11.8-30.5,19.2-47.8,23.5c-3.2,0.8-1.8,5.6,1.3,4.9
	c18.3-4.5,35.8-12.4,50.1-24.8c14.1-12.2,23.8-28.5,28.2-46.6C158,133,153.2,131.6,152.4,134.8L152.4,134.8z"/>
<path class="st4" d="M94.4,205.4c-8.9,5.8-11.8,15.9-12.9,25.9c-1.3,10.9-2.3,20.9-7.8,30.6c-9.5,16.9-27.2,29-46.6,30.6
	c-3.2,0.3-3.2,5.3,0,5.1c19.1-1.6,36.5-12.1,47.5-27.8c5.6-8,9.2-17.2,10.6-26.9c1.6-11.3,0.8-26.1,11.7-33.2
	C99.6,208,97.1,203.6,94.4,205.4z"/>
<path class="st4" d="M50.5,131.4c-21.6,10-26.1,36.7-17.7,57.1c4.1,9.9,14.8,23.3,4.7,32.9c-7.3,7-17.6,9.1-22.2,19
	c-5.1,11.1-0.8,23.9,9.5,30.1c2.8,1.7,5.3-2.7,2.5-4.4c-10-6.1-12.4-19.9-4.1-28.6c5.9-6.2,14.9-8.3,20.1-15.2
	c6.1-8.1,2.8-17.8-1.3-26.1c-5.3-10.8-9.8-21.4-8.1-33.8c1.5-11.5,8.4-21.8,19.1-26.8C56,134.4,53.4,130,50.5,131.4z"/>
<path class="st4" d="M50.9,128C61.5,110.7,79,98.4,99,94.7c20.8-3.9,46.3,1.7,60.6,18.2c8,9.2,11.1,22.8,4.8,33.8
	c-1.6,2.8,2.7,5.4,4.4,2.6c5.6-9.8,5.1-21.8,0-31.7c-5.2-10.2-14.8-17.6-25-22.2c-22.5-10.2-49.3-8.9-70.5,3.7
	c-10.9,6.5-20,15.6-26.6,26.4C44.9,128.2,49.2,130.7,50.9,128L50.9,128z"/>
<path class="st4" d="M157.5,152.6c4.7,7.7,6.8,16.6,5.5,25.6c-0.4,3.2,4.4,4.5,4.9,1.3c1.5-10.4-0.5-20.6-6-29.5
	C160.1,147.3,155.7,149.8,157.5,152.6L157.5,152.6z"/>
<path class="st4" d="M145.8,184.8c1.8,4.5,2.7,9.1,2.5,13.9c-0.1,3.2,4.9,3.2,5,0c0.2-5.3-0.7-10.4-2.7-15.2
	C149.5,180.5,144.6,181.8,145.8,184.8z"/>
<path class="st4" d="M72.6,286.7c23.7,2.7,46.1,15.1,60.8,34c7.6,9.8,13,21.2,16.1,33.1c1.6,6.1,2.5,12.4,2.7,18.8
	c0.1,2.9,0.1,5.7-0.1,8.6c-0.2,3,0.1,7.4-1.8,9.8c-2,2.4,1.5,6.1,3.6,3.6c1.7-2,2.2-3,2.6-5.7c0.4-2.7,0.6-5.1,0.8-7.7
	c0.3-5.5,0.1-11.1-0.6-16.6c-1.3-10.4-4.2-20.6-8.7-30.1c-8.9-18.7-24.2-34-42.7-43.3C95,286.2,84,283,72.6,281.7
	C69.4,281.3,69.5,286.4,72.6,286.7z"/>
<path class="st4" d="M265.4,383.8c9.9-10.5,22.1-18.8,35.6-23.8c1.2-0.5,7.4-3.3,8.6-1.9c1.3,1.6-7.7,6.5-8.9,7.3
	c-7.3,4.6-14.5,9.3-21.8,13.9c-2.7,1.7-0.2,6.1,2.5,4.4c9.5-6.1,19.3-11.9,28.7-18.2c2.7-1.8,5.8-4.6,4.8-8.3
	c-0.9-3-3.9-4.2-6.7-4.2c-4.1,0.1-8.2,2-11.9,3.6c-4.2,1.7-8.3,3.7-12.2,6c-8.2,4.8-15.7,10.8-22.2,17.7
	C259.6,382.5,263.2,386.1,265.4,383.8z"/>
<path class="st4" d="M314.6,368.8c-9.7,7.4-19.4,14.9-29.1,22.3c-2.5,1.9,0,6.3,2.5,4.4c9.7-7.4,19.4-14.9,29.1-22.3
	C319.7,371.2,317.2,366.8,314.6,368.8z"/>
<path class="st4" d="M300.5,391.1c-0.2,5.6-3.9,10.6-9.2,12.3c-3.1,1-1.8,5.9,1.3,4.9c7.5-2.4,12.7-9.2,12.9-17.2
	C305.6,387.8,300.6,387.8,300.5,391.1z"/>
<path class="st4" d="M292.2,410.9c-4.7,13.5-18.1,22.7-32.3,22.4c-3.3-0.1-3.3,5,0,5.1c16.6,0.3,31.8-10.5,37.2-26.1
	C298.2,409.2,293.3,407.9,292.2,410.9z"/>
<path class="st4" d="M250.2,393c-4.1,7.3-8.1,14.6-12.2,21.9c-1.6,2.8,2.8,5.4,4.4,2.6c4.1-7.3,8.1-14.6,12.2-21.9
	C256.2,392.7,251.8,390.2,250.2,393z"/>
<path class="st4" d="M322.8,365.8c8-1.2,15.9,1.7,21.4,7.5c2.2,2.4,5.8-1.2,3.6-3.6c-6.9-7.2-16.5-10.3-26.3-8.8
	C318.3,361.4,319.6,366.3,322.8,365.8z"/>
<path class="st4" d="M316.2,387.3c4.9-6.1,11.8-10.1,19.6-10.8c-0.2-1.7-0.4-3.3-0.7-5c-1.7,0.3-3.4,0.5-5.1,0.8
	c-3.2,0.5-1.8,5.3,1.3,4.9c1.7-0.3,3.4-0.5,5.1-0.8c2.8-0.4,2.2-5.2-0.7-5c-9.1,0.9-17.4,5.1-23.2,12.3
	C310.6,386.3,314.1,389.9,316.2,387.3L316.2,387.3z"/>
<path class="st4" d="M305,384.8c6.7,10.5,20,15.5,32,11.6c3.1-1,1.8-5.9-1.3-4.9c-9.7,3.2-20.7-0.6-26.3-9.3
	C307.6,379.5,303.3,382,305,384.8L305,384.8z"/>
<path class="st4" d="M336.3,400c-11,14.1-26.3,23.8-43.7,27.7c-3.2,0.7-1.8,5.6,1.3,4.9c18.2-4,34.5-14.3,46-29
	C341.8,401,338.3,397.4,336.3,400L336.3,400z"/>
<path class="st4" d="M353.6,359.7c2.5-2.7,3.8-5.8,3.5-9.5c-0.1-1.5-0.5-2.9-0.8-4.3c-0.1-0.4-0.4-1.1-0.3-1.5
	c0.1-0.7-0.5,0,0.5-0.4c2.3-0.7,6.1,0.3,8.4,0.5c3.4,0.3,6.8,0.7,10.2,1c6.2,0.6,12.5,0.9,18.8,0c10-1.3,22.1-5.4,28.7-13.6
	c6-7.4,4-17.2-2.7-23.5c-9.5-8.8-23-6.9-34.6-4.9c-3.2,0.6-1.8,5.4,1.3,4.9c11.4-2,30.6-4.2,34.4,10.9c3.3,13.2-17.5,19.7-27.1,21.1
	c-7.4,1.1-15,0.4-22.4-0.4c-3.4-0.4-6.8-0.7-10.2-1c-2.2-0.2-4.6-0.5-6.8,0.1c-3,0.9-3.8,3.4-3.4,6.3c0.6,3.9,2.2,7.2-1,10.5
	C347.8,358.5,351.3,362.1,353.6,359.7L353.6,359.7z"/>
<path class="st4" d="M221.7,242.8c20.6,3.2,41.2,6.5,61.8,9.7c32.8,5.2,65.7,10.4,98.5,15.5c7.6,1.2,15.2,2.4,22.8,3.6
	c1.8,0.3,3-0.7,3.2-2.4c2.6-21.2,5.1-42.4,7.7-63.6c4.1-33.6,8.1-67.3,12.2-100.9c0.9-7.7,1.9-15.5,2.8-23.2c0.1-1-0.9-2.3-1.9-2.4
	c-27.5-3.8-54.9-7.7-82.4-11.5c-43.8-6.1-87.6-12.3-131.5-18.4c-10.1-1.4-20.2-2.8-30.3-4.2c-1.8-0.2-3,0.7-3.2,2.4
	c-1.8,15.2-3.6,30.4-5.4,45.6c-0.4,3.2,4.7,3.2,5,0c1.8-15.2,3.6-30.4,5.4-45.6l-3.2,2.4c27.5,3.8,54.9,7.7,82.4,11.5
	c43.8,6.1,87.6,12.3,131.5,18.4c10.1,1.4,20.2,2.8,30.3,4.2c-0.6-0.8-1.2-1.6-1.9-2.4c-2.6,21.2-5.1,42.4-7.7,63.6
	c-4.1,33.6-8.1,67.3-12.2,100.9c-0.9,7.7-1.9,15.5-2.8,23.2c1.1-0.8,2.1-1.6,3.2-2.4c-20.6-3.2-41.2-6.5-61.8-9.7
	c-32.8-5.2-65.7-10.4-98.5-15.5c-7.6-1.2-15.2-2.4-22.8-3.6C219.8,237.4,218.4,242.3,221.7,242.8L221.7,242.8z"/>
<path class="st4" d="M245.6,287.5c27.9,5,55.8,10,83.7,15c4,0.7,7.9,1.4,11.9,2.1c3.2,0.6,4.5-4.3,1.3-4.9c-27.9-5-55.8-10-83.7-15
	c-4-0.7-7.9-1.4-11.9-2.1C243.7,282.1,242.4,287,245.6,287.5z"/>
<path class="st4" d="M245.6,306.2c27.9,5,55.8,10,83.7,15c4,0.7,7.9,1.4,11.9,2.1c3.2,0.6,4.5-4.3,1.3-4.9c-27.9-5-55.8-10-83.7-15
	c-4-0.7-7.9-1.4-11.9-2.1C243.7,300.7,242.4,305.6,245.6,306.2z"/>
<path class="st4" d="M214.6,226.7c19.9,3.1,39.8,6.1,59.6,9.2c31.4,4.9,62.9,9.7,94.3,14.6c7.3,1.1,14.6,2.3,21.9,3.4
	c1.8,0.3,3-0.7,3.2-2.4c2.1-17.8,4.3-35.5,6.4-53.3c3.4-28.3,6.8-56.6,10.2-84.9c0.8-6.5,1.6-13,2.3-19.4c0.1-1-0.9-2.3-1.9-2.4
	c-24.1-3.3-48.1-6.7-72.2-10c-38.1-5.3-76.2-10.5-114.2-15.8c-8.8-1.2-17.6-2.4-26.3-3.7c-1.2-0.2-2.9,0.3-3.1,1.8
	c-2.1,14-4.2,28.1-6.3,42.1c-0.5,3.2,4.4,4.5,4.9,1.3c2.1-14,4.2-28.1,6.3-42.1c-1,0.6-2.1,1.2-3.1,1.8c24.1,3.3,48.1,6.7,72.2,10
	c38.1,5.3,76.2,10.5,114.2,15.8c8.8,1.2,17.6,2.4,26.3,3.7c-0.6-0.8-1.2-1.6-1.9-2.4c-2.1,17.8-4.3,35.5-6.4,53.3
	c-3.4,28.3-6.8,56.6-10.2,84.9c-0.8,6.5-1.6,13-2.3,19.4c1.1-0.8,2.1-1.6,3.2-2.4c-19.9-3.1-39.8-6.1-59.6-9.2
	c-31.4-4.9-62.9-9.7-94.3-14.6c-7.3-1.1-14.6-2.3-21.9-3.4C212.7,221.4,211.4,226.2,214.6,226.7L214.6,226.7z"/>
<path class="st4" d="M425.9,82.8c3.2,5.9,6.4,11.7,9.6,17.6c0.5,1,1,2.3,1.7,3.1c0.9,1.1-0.2-0.4,0-0.5c-0.3,0.2-0.3,2-0.3,2.3
	c-1.4,10.3-2.7,20.6-4.1,30.9c-4.3,32.7-8.6,65.4-13,98.1c-1.1,8.3-2.2,16.6-3.3,24.8c-0.4,3.2,4.6,3.2,5,0c3-22.5,5.9-45,8.9-67.4
	c3.7-28.3,7.5-56.6,11.2-84.9c0.4-2.8,0.7-4.2-0.6-6.7c-3.6-6.6-7.2-13.2-10.7-19.8C428.7,77.4,424.4,80,425.9,82.8L425.9,82.8z"/>
<path class="st4" d="M348.8,318.3c4.6-4,8.8-8.2,12.8-12.8c2.1-2.4-1.4-6-3.6-3.6c-4,4.6-8.2,8.8-12.8,12.8
	C342.8,316.9,346.4,320.5,348.8,318.3z"/>
<path class="st4" d="M295.4,262.3c-2.3,6.6-4.7,13.2-7,19.8c-1.1,3.1,3.8,4.4,4.9,1.3c2.3-6.6,4.7-13.2,7-19.8
	C301.4,260.6,296.5,259.2,295.4,262.3z"/>
<path class="st4" d="M354,264.4c2,10.3,4.1,20.6,6,31c0.6,3.2,5.5,1.8,4.9-1.3c-2-10.3-4.1-20.6-6-31
	C358.2,259.8,353.3,261.2,354,264.4z"/>
<path class="st4" d="M154.9,411.2c6.7-0.4,13.5,0.5,20.1,1.3c8.8,1,17.5,2.3,26.2,3.6c7.4,1.1,15,1.8,22.3,3.5
	c5.7,1.3,11.2,3.3,16.3,6.2c3.5,2,15.1,8.9,10.8,14c-2.1,2.5,1.5,6.1,3.6,3.6c8.6-10.4-8.4-20.7-16.3-24.2
	c-9.5-4.3-19.5-5.6-29.6-7.1c-9.5-1.4-19-2.9-28.6-4.1c-8.1-1-16.6-2.4-24.8-1.9C151.7,406.4,151.6,411.4,154.9,411.2L154.9,411.2z"
	/>
<path class="st4" d="M151.8,193.1c4.1-2.1,7-5.6,8.7-9.8c0.5-1.3-0.6-2.8-1.8-3.1c-1.4-0.4-2.6,0.5-3.1,1.8c-1.2,3-3.6,5.3-6.4,6.8
	C146.4,190.2,148.9,194.6,151.8,193.1L151.8,193.1z"/>
<path class="st4" d="M171.3,206.6c1.3-0.8,1.8,1.2,1.6,2.1c-0.4,1.7-2,2.7-3.5,3.5c-2.8,1.6-0.3,5.9,2.5,4.4c3.7-2,6.9-5.8,5.8-10.3
	c-1-4-5.5-6.1-9.1-4.1C165.9,203.8,168.4,208.2,171.3,206.6L171.3,206.6z"/>
<path class="st4" d="M115.8,260.9c-2.2,3.6-5,6.9-8,9.9c-2.5,2.6-6.3,6.8-10.2,6.9c-3.2,0.1-3.3,5.2,0,5c4.9-0.2,9.1-3.9,12.5-7.1
	c3.8-3.6,7.4-7.8,10.2-12.3C121.9,260.7,117.5,258.2,115.8,260.9z"/>
<path class="st4" d="M166.7,223.6c-0.8,12.6-2.1,28.5-14.6,35.2c-9.5,5.1-23.2,3.3-33.4,1c-3.2-0.7-4.5,4.1-1.3,4.9
	c11.9,2.7,27.4,4.5,38.3-2.1c13.4-8.1,15.2-24.8,16.1-38.9C171.9,220.3,166.9,220.4,166.7,223.6z"/>
<path class="st4" d="M129.4,245.1c3.1-5.7,10.3-8.5,16.3-5.6c2.9,1.4,5.5-3,2.5-4.4c-8.4-4-18.8-0.9-23.2,7.5
	C123.5,245.4,127.8,248,129.4,245.1L129.4,245.1z"/>
<path class="st4" d="M59.1,87.2c-2.8-1.5-4.6-5.3-6.2-7.9c-2-3.1-3.8-6.4-5.9-9.5c-2.7-3.9-6.6-10.2-1-13.8c5.4-3.4,9.2,4.7,4.5,7.8
	c-5.6,3.7-11.1-2.3-11.2-7.8c-0.1-5.4,4.9-12.5,10.5-13.4c4.5-0.7,3.2,5.3-1,4.7c-3-0.4-5.1-3.3-5.7-6c-1.4-6.4,3.9-11.3,10.1-10.8
	c-0.8-0.6-1.6-1.2-2.4-1.9c0.9,3.5-2,7.1-5.7,6.5c-2.8-0.4-5.1-3.3-5.4-6c-0.7-6.1,6.3-10.7,11.8-8.7c6.7,2.5,3.8,9.4-1.3,11.7
	c-5.4,2.5-13.3,0.9-16.4-4.5c-1.5-2.6-1.8-6.3,0-8.9c1.7-2.4,5.5-3.7,8.2-2c5.7,3.5,2,12.6-1.9,15.8c-4.7,3.8-13.2,2.6-14.5-4.2
	c-0.9-4.8,5.5-9.5,9.5-6L34.5,20c-0.4,1.1-1,3.1-2.4,3.4c-1,0.3-0.9-0.4-1.6-0.1c-0.9-0.4-1.9-0.8-2.8-1.2c0.9,1.5,2,3.2,1.8,5
	c0,1.4-0.7,2.3-1.9,2.9c-0.9-0.1-1.4-0.5-1.3-1.2c1.3-1,1.9-3.5,0-4.4c-10.1-4.6-20.1,2.4-23.7,12c-3.4,9-3.8,21.4,1.7,29.7
	c5.4,8.2,15.7,9.2,23.1,2.9c9.1-7.7,8-20.5,3.4-30.4c-0.9-2.1-1.6-4.2-4-4.7c-2.4-0.5-5.1,0.3-7.1,1.5c-4.1,2.3-6.9,6.7-7.4,11.3
	c-1.2,10.6,8.2,20.5,17.7,23.7c10.2,3.4,21-3,20.1-14.3c-0.5-6.3-2.1-11.8-0.2-18.1c1.7-5.6,5.6-10.6,11.2-12.6
	c5.5-2,12.3-1.2,16.5,3.2c4.5,4.8,4.5,11.9,2.8,17.9c-1.8,6.2-5.9,12.5-11.6,15.8c-5.6,3.3-12.9,3.1-17.2-2.3c-2-2.6-5.6,1-3.6,3.6
	c8.5,10.8,23.6,5.4,30.8-3.7c7.1-8.9,11.1-23.1,3.8-33c-7.2-9.8-22-9.6-30.5-1.8c-4.6,4.2-7.3,10.2-8.1,16.4
	c-0.4,2.9-0.3,5.7,0.1,8.5c0.6,4.3,2.4,9.8-1.1,13.5c-6.4,6.6-16.7,0.7-21.5-4.9c-2.9-3.4-5.2-8.2-3.9-12.7c1.2-4.2,4.8-7.3,9.2-6.9
	c-0.7-0.4-1.5-0.8-2.2-1.2c4.1,7.6,7.5,18.1,1.3,25.6c-4.8,5.9-13.3,6.7-17.6-0.1c-3.7-6-3.7-14-2.3-20.7
	c1.6-7.7,8.5-17.8,17.7-13.7v-4.4c-4.5,3.5-2.1,11.2,3.9,10.7c8.2-0.7,7.6-10.4,4.4-15.6c-0.5-0.9-1.8-1.6-2.8-1.2
	c-4.2,1.7-4.2,7.1-0.6,9.5c4.9,3.3,9.4-2.5,10.8-6.6c0.3-0.8,0-1.9-0.7-2.5c-5.2-4.5-13.5-2.6-16.9,3.3c-4,7,1.5,15.3,8.5,17.4
	c8.1,2.4,16-3.7,18.6-11.1c2.5-7.4-0.7-17.3-9.7-17.3c-8.4,0-13.4,8.4-11.1,16.1c2.5,8.3,12,12.6,20.2,11c7.1-1.4,14.5-8.2,11.6-16
	c-2.5-6.7-11.4-8.8-17.4-5.8c-8.3,4.1-10.9,16-2.9,21.8c7.7,5.6,18.6-1.5,16-10.8c-0.3-1.1-1.3-1.8-2.4-1.9
	c-7.4-0.6-14.3,4.5-15.2,12c-0.8,6.7,3.6,14.4,10.8,14.9c6,0.4,11.8-6.3,7.9-11.9c-4.6-6.8-13.8-0.8-17.6,3.6
	c-4.8,5.6-6.6,13.8-2.3,20.3c3.7,5.5,11.7,7.4,17.1,3.3c4.9-3.7,5.2-11.6,0.5-15.6c-5.1-4.3-12.8-1-15.2,4.6
	c-3.3,7.6,2.5,13.8,6.2,19.8c2.9,4.8,6.2,12.2,11.3,15C59.5,93.1,62,88.8,59.1,87.2L59.1,87.2z"/>
<path class="st4" d="M53.6,50.6c12.7,3.6,19.6-9.5,20.7-20.1C75.5,19.3,72.2,6.7,61,1.9c-10.2-4.3-23.3,0.6-27,11.4
	c-4,11.5,7.4,20.4,18.2,17.4c11.2-3.1,15.8-18.1,5.2-25c-1.2-0.8-2.7-0.2-3.5,0.9C53.5,7.3,53,8,52.6,8.7c-1.8,2.7,2.6,5.3,4.4,2.6
	c0.5-0.7,0.9-1.4,1.4-2.1c-1.2,0.3-2.3,0.6-3.5,0.9c3.9,2.6,4.7,8.1,1.9,11.8c-2.6,3.6-7.6,5.1-11.9,4.1c-6.1-1.5-8.4-7.5-5.4-12.9
	c2.3-4.2,6.9-7.1,11.6-7.7C77.1,2.3,73,50.8,54.9,45.7C51.8,44.8,50.4,49.7,53.6,50.6z"/>
<path class="st4" d="M83,275.1c8,4.2,14.5,10.4,19.1,18.2c1.7,2.8,6,0.3,4.4-2.6c-5-8.5-12.2-15.4-20.9-20
	C82.7,269.2,80.1,273.6,83,275.1z"/>
<g>
	<defs>
		
			<rect id="SVGID_1_" x="281.8" y="63.8" transform="matrix(0.138 -0.9904 0.9904 0.138 93.9507 426.3947)" width="20.3" height="190.9"/>
	</defs>
	<clipPath id="SVGID_00000050645644914481340700000016266780292202299297_">
		<use xlink:href="#SVGID_1_"  style="overflow:visible;"/>
	</clipPath>
	<g style="clip-path:url(#SVGID_00000050645644914481340700000016266780292202299297_);">
		<path class="st6" d="M205.5,155.4l0.3-2.5l-6.7-0.9c-0.8-0.1-1.4-0.4-1.8-0.8c-0.4-0.4-0.5-1-0.4-1.6c0-0.2,0.1-0.3,0.2-0.5
			c0.1-0.2,0.2-0.3,0.4-0.5s0.3-0.3,0.5-0.5c0.2-0.2,0.4-0.4,0.6-0.6l8.3-8.4c0.5-0.6,1-0.9,1.3-1.2c0.3-0.2,0.7-0.3,1.1-0.3
			c1.3,0.2,1.9,1,1.7,2.6l-1.4,10.3l0.6,0.1c0.7,0.1,1.2,0.3,1.6,0.5c0.4,0.2,0.5,0.7,0.4,1.3c-0.1,0.5-0.3,0.9-0.7,1
			c-0.4,0.2-0.9,0.2-1.6,0.1l-0.8-0.1l-0.3,2.5c-0.1,0.7-0.3,1.2-0.7,1.5c-0.3,0.3-0.8,0.4-1.3,0.3c-0.5-0.1-0.9-0.3-1.1-0.7
			C205.4,156.5,205.3,156,205.5,155.4L205.5,155.4z M200.5,149.1l5.7,0.8l1.1-7.7L200.5,149.1z"/>
		<path class="st6" d="M228,150.5c-0.2,1.5-0.5,2.7-0.8,3.7c-0.3,1-0.8,1.9-1.4,2.7c-0.8,1-1.6,1.7-2.7,2.1c-1,0.4-2.1,0.6-3.3,0.4
			c-1.3-0.2-2.5-0.7-3.5-1.6c-1-0.9-1.6-2.1-2-3.5c-0.2-0.8-0.3-1.6-0.3-2.5c0-0.9,0.1-1.9,0.2-2.9c0.2-1.3,0.4-2.5,0.7-3.6
			c0.3-1,0.6-1.9,1-2.7c0.7-1.2,1.6-2.1,2.7-2.6c1.1-0.5,2.3-0.7,3.7-0.5c0.9,0.1,1.7,0.4,2.4,0.8c0.7,0.4,1.3,0.9,1.8,1.6
			c0.5,0.6,0.9,1.4,1.1,2.3C228.3,145.7,228.4,147.9,228,150.5L228,150.5z M224.4,149.7c0.2-1.6,0.3-3,0.3-4
			c-0.1-1.1-0.3-1.9-0.7-2.5c-0.4-0.6-1-0.9-1.8-1.1c-1.2-0.2-2.1,0.3-2.7,1.4c-0.6,1.1-1.1,2.9-1.4,5.3c-0.2,1.7-0.3,3-0.3,4.1
			c0,1.1,0.3,1.9,0.6,2.5c0.4,0.6,1,1,1.8,1.1c0.8,0.1,1.5-0.1,2-0.6c0.5-0.5,1-1.3,1.3-2.3C223.9,152.8,224.2,151.4,224.4,149.7z"
			/>
		<path class="st6" d="M237.7,159.9l0.3-2.5l-6.7-0.9c-0.8-0.1-1.4-0.4-1.8-0.8c-0.4-0.4-0.5-1-0.4-1.6c0-0.2,0.1-0.3,0.2-0.5
			c0.1-0.2,0.2-0.3,0.4-0.5c0.2-0.2,0.3-0.3,0.5-0.5c0.2-0.2,0.4-0.4,0.6-0.6l8.3-8.4c0.5-0.6,1-0.9,1.3-1.2
			c0.3-0.2,0.7-0.3,1.1-0.3c1.3,0.2,1.9,1,1.7,2.6l-1.4,10.3l0.6,0.1c0.7,0.1,1.2,0.3,1.6,0.5c0.4,0.2,0.5,0.7,0.4,1.3
			c-0.1,0.5-0.3,0.9-0.7,1c-0.4,0.2-0.9,0.2-1.6,0.1l-0.8-0.1l-0.3,2.5c-0.1,0.7-0.3,1.2-0.7,1.5c-0.3,0.3-0.8,0.4-1.3,0.3
			c-0.5-0.1-0.9-0.3-1.1-0.7S237.6,160.5,237.7,159.9L237.7,159.9z M232.8,153.6l5.7,0.8l1.1-7.7L232.8,153.6z"/>
		<path class="st6" d="M260.6,147l6,12.5l1.6-11.6c0.1-0.7,0.3-1.3,0.7-1.6c0.4-0.3,0.8-0.5,1.4-0.4c0.6,0.1,1,0.3,1.3,0.7
			c0.3,0.4,0.4,1,0.3,1.8l-2.1,15.3c-0.2,1.7-1.1,2.5-2.5,2.3c-0.4-0.1-0.7-0.1-0.9-0.3c-0.3-0.1-0.5-0.3-0.7-0.6
			c-0.2-0.2-0.4-0.5-0.6-0.9c-0.2-0.3-0.3-0.7-0.5-1l-5.8-12.4l-1.6,11.4c-0.1,0.7-0.4,1.3-0.7,1.6c-0.4,0.3-0.9,0.5-1.4,0.4
			c-0.5-0.1-1-0.3-1.3-0.8c-0.3-0.4-0.4-1-0.3-1.8l2.1-15c0.1-0.6,0.2-1.1,0.4-1.5c0.2-0.4,0.5-0.7,1-0.9c0.4-0.2,0.9-0.3,1.3-0.2
			c0.4,0,0.7,0.1,0.9,0.3c0.2,0.2,0.4,0.3,0.6,0.6c0.2,0.2,0.3,0.5,0.5,0.8C260.3,146.3,260.4,146.6,260.6,147L260.6,147z"/>
		<path class="st6" d="M287.9,161.4c-0.1,1.1-0.5,2.1-0.9,2.9c-0.5,0.9-1.1,1.6-1.8,2.1c-0.7,0.6-1.6,1-2.5,1.2s-2,0.3-3.1,0.1
			c-1.1-0.2-2.1-0.5-2.9-0.9c-0.8-0.5-1.5-1.1-2.1-1.8c-0.5-0.7-0.9-1.6-1.1-2.5c-0.2-0.9-0.2-2-0.1-3c0.2-1.1,0.5-2.1,0.9-2.9
			c0.5-0.9,1.1-1.6,1.8-2.1c0.7-0.6,1.6-1,2.5-1.2c0.9-0.2,2-0.3,3-0.1c1.1,0.2,2.1,0.5,2.9,0.9c0.8,0.5,1.5,1.1,2.1,1.8
			c0.5,0.7,0.9,1.6,1.1,2.5C288,159.3,288.1,160.3,287.9,161.4L287.9,161.4z M284.3,160.9c0.2-1.5,0-2.7-0.5-3.6
			c-0.5-0.9-1.4-1.4-2.4-1.6c-0.7-0.1-1.4,0-1.9,0.3s-1.1,0.8-1.5,1.5c-0.4,0.7-0.6,1.5-0.8,2.4c-0.1,1-0.1,1.8,0.1,2.5
			c0.2,0.7,0.5,1.3,1,1.8c0.5,0.5,1.1,0.7,1.8,0.8c1.1,0.2,2-0.1,2.8-0.9C283.6,163.5,284.1,162.4,284.3,160.9L284.3,160.9z"/>
		<path class="st6" d="M292,154.8l0.4,0.1l0.3-2.2c0.1-0.6,0.2-1,0.2-1.4c0.1-0.3,0.2-0.6,0.4-0.8c0.2-0.2,0.4-0.4,0.7-0.5
			c0.3-0.1,0.6-0.2,0.9-0.1c0.5,0.1,0.9,0.3,1.2,0.7c0.2,0.3,0.3,0.6,0.4,0.9c0,0.3,0,0.8-0.1,1.4l-0.3,2.5l1.3,0.2
			c0.5,0.1,0.9,0.2,1.1,0.5c0.2,0.3,0.3,0.6,0.3,1c-0.1,0.5-0.3,0.8-0.7,0.9c-0.4,0.1-1,0.2-1.7,0.1l-0.7-0.1l-0.9,6.7
			c-0.1,0.6-0.1,1-0.1,1.3c0,0.3,0.1,0.6,0.2,0.8c0.1,0.2,0.4,0.4,0.8,0.4c0.2,0,0.5,0,0.9,0c0.4,0,0.7,0,0.9,0
			c0.3,0,0.5,0.2,0.7,0.5c0.2,0.3,0.3,0.6,0.2,0.9c-0.1,0.6-0.5,1-1.1,1.2c-0.7,0.2-1.6,0.2-2.8,0.1c-1.1-0.2-2-0.5-2.5-0.9
			c-0.5-0.5-0.8-1-0.9-1.7c-0.1-0.7-0.1-1.6,0.1-2.7l1-6.9l-0.5-0.1c-0.5-0.1-0.9-0.3-1.1-0.5c-0.2-0.3-0.3-0.6-0.3-1
			c0.1-0.4,0.2-0.7,0.6-0.9C291,154.8,291.4,154.7,292,154.8L292,154.8z"/>
		<path class="st6" d="M320.3,156.4l-7.8-1.1l-0.7,5l6.5,0.9c0.6,0.1,1,0.3,1.3,0.6c0.3,0.3,0.4,0.7,0.3,1.1c-0.1,0.5-0.3,0.8-0.6,1
			c-0.3,0.2-0.8,0.3-1.4,0.2l-6.5-0.9l-0.9,6.4c-0.1,0.8-0.4,1.4-0.8,1.7c-0.4,0.3-0.9,0.5-1.5,0.4c-0.6-0.1-1-0.3-1.3-0.8
			c-0.3-0.4-0.4-1.1-0.3-1.9l2.1-15c0.1-0.6,0.2-1,0.4-1.3c0.2-0.3,0.5-0.6,0.9-0.7c0.4-0.1,0.8-0.1,1.4-0.1l9.3,1.3
			c0.6,0.1,1.1,0.3,1.3,0.6c0.3,0.3,0.4,0.7,0.3,1.2c-0.1,0.5-0.3,0.8-0.6,1S321,156.5,320.3,156.4z"/>
		<path class="st6" d="M337.1,168.3c-0.2,1.1-0.5,2.1-0.9,2.9c-0.5,0.9-1.1,1.6-1.8,2.1c-0.7,0.6-1.6,1-2.5,1.2
			c-0.9,0.2-2,0.3-3.1,0.1c-1.1-0.2-2.1-0.5-2.9-0.9c-0.8-0.5-1.5-1.1-2.1-1.8c-0.5-0.7-0.9-1.6-1.1-2.5c-0.2-0.9-0.2-2-0.1-3
			c0.2-1.1,0.5-2.1,0.9-2.9c0.5-0.9,1.1-1.6,1.8-2.1c0.7-0.6,1.5-1,2.5-1.2c0.9-0.2,1.9-0.3,3-0.1c1.1,0.1,2.1,0.5,2.9,0.9
			c0.8,0.5,1.5,1.1,2.1,1.8c0.5,0.7,0.9,1.6,1.1,2.5C337.2,166.2,337.3,167.2,337.1,168.3L337.1,168.3z M333.5,167.8
			c0.2-1.5,0-2.7-0.5-3.6c-0.5-0.9-1.4-1.4-2.4-1.6c-0.7-0.1-1.4,0-1.9,0.3c-0.6,0.3-1.1,0.8-1.5,1.5s-0.7,1.5-0.8,2.4
			c-0.1,1-0.1,1.8,0.1,2.5c0.2,0.7,0.5,1.3,1,1.8c0.5,0.5,1.1,0.7,1.8,0.8c1.1,0.2,2-0.1,2.8-0.9
			C332.8,170.3,333.3,169.2,333.5,167.8L333.5,167.8z"/>
		<path class="st6" d="M348.6,175.3l0.1-0.5c-0.5,0.5-1,0.9-1.6,1.2c-0.5,0.3-1.1,0.5-1.7,0.6c-0.6,0.1-1.2,0.1-2,0
			c-0.9-0.1-1.6-0.4-2.3-0.9c-0.6-0.5-1.1-1-1.4-1.7c-0.3-0.8-0.4-2-0.2-3.4l1-7.2c0.1-0.7,0.3-1.2,0.7-1.6c0.4-0.3,0.8-0.4,1.4-0.4
			c0.5,0.1,1,0.3,1.3,0.7c0.3,0.4,0.4,1,0.3,1.7l-0.8,5.8c-0.1,0.8-0.1,1.6-0.1,2.1c0.1,0.6,0.3,1.1,0.6,1.4
			c0.3,0.4,0.8,0.6,1.4,0.7c0.6,0.1,1.2,0,1.8-0.3c0.6-0.3,1-0.7,1.4-1.3c0.3-0.5,0.5-1.6,0.8-3.3l0.6-4.4c0.1-0.7,0.3-1.2,0.7-1.5
			c0.4-0.3,0.9-0.4,1.4-0.4c0.5,0.1,1,0.3,1.2,0.7c0.3,0.4,0.4,1,0.3,1.7l-1.5,10.5c-0.1,0.7-0.3,1.2-0.7,1.5
			c-0.4,0.3-0.8,0.4-1.3,0.3c-0.5-0.1-0.9-0.3-1.2-0.7C348.6,176.5,348.5,175.9,348.6,175.3L348.6,175.3z"/>
		<path class="st6" d="M360.4,166l-0.1,0.4c0.8-0.8,1.5-1.3,2.3-1.6c0.8-0.3,1.7-0.4,2.7-0.2c1,0.1,1.8,0.5,2.5,1
			c0.7,0.5,1.2,1.2,1.4,2c0.2,0.5,0.3,1,0.3,1.5c0,0.5-0.1,1.2-0.2,2l-0.9,6.7c-0.1,0.7-0.3,1.3-0.7,1.6c-0.4,0.3-0.8,0.5-1.4,0.4
			c-0.5-0.1-0.9-0.3-1.2-0.8c-0.3-0.4-0.4-1-0.3-1.7l0.8-6c0.2-1.2,0.1-2.1-0.1-2.8c-0.2-0.7-0.9-1.1-1.9-1.2
			c-0.6-0.1-1.3,0-1.8,0.3c-0.6,0.3-1,0.8-1.4,1.4c-0.3,0.5-0.5,1.5-0.7,3l-0.6,4.5c-0.1,0.7-0.4,1.3-0.7,1.6
			c-0.4,0.3-0.9,0.4-1.4,0.4c-0.5-0.1-0.9-0.3-1.2-0.7c-0.3-0.4-0.4-1-0.3-1.7l1.5-10.5c0.1-0.7,0.3-1.2,0.7-1.5
			c0.3-0.3,0.8-0.4,1.3-0.3c0.3,0,0.6,0.2,0.8,0.3c0.2,0.2,0.4,0.4,0.5,0.8C360.4,165.2,360.5,165.6,360.4,166L360.4,166z"/>
		<path class="st6" d="M381.9,179.9l0.1-0.4c-0.6,0.5-1.1,0.9-1.6,1.2c-0.5,0.3-1.1,0.5-1.6,0.6c-0.6,0.1-1.2,0.1-1.8,0
			c-0.9-0.1-1.6-0.4-2.3-0.9c-0.7-0.5-1.2-1.1-1.7-1.8c-0.4-0.8-0.7-1.6-0.9-2.6c-0.2-1-0.1-2,0-3c0.3-2.3,1.1-3.9,2.4-5.1
			c1.3-1.1,2.8-1.5,4.6-1.3c1,0.1,1.9,0.4,2.6,0.9c0.7,0.5,1.3,1.1,1.9,1.9l0.7-5.3c0.1-0.7,0.3-1.3,0.7-1.6
			c0.4-0.3,0.8-0.5,1.3-0.4c0.5,0.1,0.9,0.3,1.2,0.7c0.2,0.4,0.3,0.9,0.2,1.6l-2.2,16c-0.1,0.7-0.3,1.2-0.7,1.5
			c-0.4,0.3-0.8,0.4-1.3,0.3c-0.5-0.1-0.9-0.3-1.2-0.7S381.8,180.6,381.9,179.9L381.9,179.9z M375.6,173.6c-0.1,1-0.1,1.8,0.1,2.6
			c0.2,0.7,0.6,1.3,1,1.7c0.5,0.4,1,0.7,1.7,0.8c0.6,0.1,1.2,0,1.8-0.3s1.1-0.7,1.5-1.3c0.4-0.6,0.7-1.5,0.8-2.5
			c0.1-1,0.1-1.8-0.1-2.5c-0.2-0.7-0.6-1.3-1.1-1.8c-0.5-0.4-1-0.7-1.7-0.8c-0.6-0.1-1.3,0-1.9,0.3c-0.6,0.3-1.1,0.8-1.4,1.4
			C376,171.9,375.7,172.7,375.6,173.6L375.6,173.6z"/>
	</g>
</g>
</svg>
